<svg width="158" height="55" viewBox="0 0 158 55" fill="none" xmlns="http://www.w3.org/2000/svg">
<path d="M32.0003 12.8948C31.8875 12.8948 31.7862 12.8555 31.6962 12.7769C31.6172 12.687 31.5779 12.586 31.5779 12.4737V4.3053C31.5779 4.18178 31.6172 4.08073 31.6962 4.00214C31.7862 3.92355 31.8875 3.88425 32.0003 3.88425H34.3488C34.8443 3.88425 35.2611 3.95723 35.599 4.10319C35.9369 4.24915 36.2128 4.42319 36.4269 4.6253C36.6183 4.81618 36.7704 5.05757 36.8831 5.34951C36.9957 5.63021 37.052 5.9053 37.052 6.17477C37.052 6.47793 36.9957 6.76986 36.8831 7.05056C36.7704 7.32003 36.6183 7.55021 36.4269 7.74109C36.3931 7.77477 36.3537 7.81407 36.3086 7.85898C36.2748 7.89267 36.2297 7.92635 36.1735 7.96003C36.5564 8.11723 36.8717 8.31934 37.1196 8.56635C37.6151 9.06039 37.863 9.64986 37.863 10.3348C37.863 10.6379 37.8067 10.9411 37.6941 11.2442C37.5814 11.5362 37.4069 11.8 37.1703 12.0358C36.9224 12.2828 36.5959 12.4906 36.1904 12.659C35.7849 12.8162 35.2611 12.8948 34.6191 12.8948H32.0003ZM34.5008 7.67372C34.7936 7.65126 35.0527 7.58951 35.278 7.48846C35.5146 7.37618 35.6947 7.25828 35.8187 7.13477C36.0776 6.89898 36.2073 6.57898 36.2073 6.17477C36.2073 5.80424 36.0776 5.48986 35.8187 5.23161C35.6722 5.07442 35.4751 4.95092 35.2273 4.86109C34.9908 4.77126 34.6979 4.72635 34.3488 4.72635H32.4227V7.67372H34.5008ZM32.4227 8.51582V12.0527H34.6191C35.1146 12.0527 35.5145 11.9965 35.8187 11.8842C36.134 11.772 36.3818 11.6204 36.5621 11.4295C36.8662 11.1263 37.0183 10.7614 37.0183 10.3348C37.0183 9.89688 36.8493 9.50951 36.5114 9.17267C36.0721 8.73477 35.4582 8.51582 34.6698 8.51582H32.4227ZM47.5455 12.8948C47.3541 12.8948 47.2246 12.8049 47.1571 12.6253C47.0443 12.3221 46.9092 11.9853 46.7516 11.6148C46.5938 11.2442 46.4249 10.8569 46.2447 10.4527H41.4801C41.3224 10.8569 41.1703 11.2442 41.024 11.6148C40.8888 11.9741 40.7648 12.3053 40.6523 12.6085C40.6185 12.6983 40.5621 12.7713 40.4833 12.8274C40.4044 12.8723 40.3199 12.8948 40.2299 12.8948C40.1285 12.8948 40.0327 12.8555 39.9426 12.7769C39.8637 12.687 39.8244 12.5804 39.8244 12.4569C39.8244 12.4232 39.8299 12.3783 39.8413 12.3221C39.8637 12.2548 39.9144 12.1257 39.9933 11.9348C40.1847 11.4295 40.41 10.8513 40.6691 10.2C40.9395 9.54881 41.2267 8.86951 41.5308 8.16214C41.8349 7.45477 42.1446 6.74178 42.4601 6.02319C42.7754 5.3046 43.0795 4.6253 43.3724 3.9853C43.4512 3.81688 43.5864 3.73267 43.7779 3.73267H43.8455C44.0483 3.73267 44.1834 3.81126 44.251 3.96846C44.5551 4.61968 44.8761 5.32144 45.2141 6.07372C45.5632 6.82599 45.9011 7.57267 46.2278 8.31372C46.5544 9.04355 46.8529 9.72846 47.1233 10.3685C47.3936 10.9972 47.6132 11.5193 47.7822 11.9348C47.8722 12.1369 47.9229 12.2716 47.9341 12.339C47.9567 12.4064 47.968 12.4513 47.968 12.4737C47.968 12.586 47.9229 12.687 47.8329 12.7769C47.7539 12.8555 47.6582 12.8948 47.5455 12.8948ZM45.8899 9.61056C45.5632 8.85828 45.2196 8.08915 44.8593 7.30319C44.4988 6.51723 44.1496 5.77056 43.8117 5.06319C43.4963 5.78178 43.164 6.53407 42.8149 7.32003C42.477 8.09477 42.1503 8.85828 41.8349 9.61056H45.8899ZM56.6537 12.8948C56.5297 12.8948 56.4227 12.8442 56.3327 12.7432L53.5787 9.54319H51.3147V12.4737C51.3147 12.586 51.2752 12.687 51.1964 12.7769C51.1175 12.8555 51.0161 12.8948 50.8923 12.8948C50.7796 12.8948 50.6782 12.8555 50.5882 12.7769C50.5092 12.687 50.4699 12.586 50.4699 12.4737V4.3053C50.4699 4.18178 50.5092 4.08073 50.5882 4.00214C50.6782 3.92355 50.7796 3.88425 50.8923 3.88425H53.3759C54.0404 3.88425 54.6093 4.00776 55.0824 4.25477C55.5667 4.50178 55.9384 4.83863 56.1975 5.2653C56.4678 5.68073 56.603 6.16355 56.603 6.71372C56.603 7.32003 56.434 7.87021 56.0961 8.36424C55.7694 8.85828 55.2569 9.20073 54.5586 9.39161L56.9747 12.2042C57.0423 12.2716 57.0761 12.3614 57.0761 12.4737C57.0761 12.5748 57.0366 12.6702 56.9578 12.76C56.8789 12.8499 56.7775 12.8948 56.6537 12.8948ZM51.3147 4.72635V8.70109H53.3759C54.1531 8.70109 54.7445 8.51021 55.15 8.12846C55.5555 7.73547 55.7582 7.26389 55.7582 6.71372C55.7582 6.11863 55.5329 5.64144 55.0824 5.28214C54.6431 4.91161 54.0742 4.72635 53.3759 4.72635H51.3147ZM60.0331 12.8948C59.9203 12.8948 59.819 12.8555 59.7289 12.7769C59.65 12.687 59.6107 12.586 59.6107 12.4737V4.3053C59.6107 4.18178 59.65 4.08073 59.7289 4.00214C59.819 3.92355 59.9203 3.88425 60.0331 3.88425H62.3815C62.8771 3.88425 63.2939 3.95723 63.6318 4.10319C63.9697 4.24915 64.2456 4.42319 64.4597 4.6253C64.6511 4.81618 64.8032 5.05757 64.9159 5.34951C65.0285 5.63021 65.0848 5.9053 65.0848 6.17477C65.0848 6.47793 65.0285 6.76986 64.9159 7.05056C64.8032 7.32003 64.6511 7.55021 64.4597 7.74109C64.4259 7.77477 64.3864 7.81407 64.3414 7.85898C64.3076 7.89267 64.2625 7.92635 64.2063 7.96003C64.5892 8.11723 64.9045 8.31934 65.1524 8.56635C65.6479 9.06039 65.8958 9.64986 65.8958 10.3348C65.8958 10.6379 65.8395 10.9411 65.7269 11.2442C65.6141 11.5362 65.4396 11.8 65.2031 12.0358C64.9552 12.2828 64.6287 12.4906 64.2232 12.659C63.8177 12.8162 63.2939 12.8948 62.6519 12.8948H60.0331ZM62.5336 7.67372C62.8264 7.65126 63.0855 7.58951 63.3108 7.48846C63.5473 7.37618 63.7275 7.25828 63.8515 7.13477C64.1104 6.89898 64.2401 6.57898 64.2401 6.17477C64.2401 5.80424 64.1104 5.48986 63.8515 5.23161C63.7049 5.07442 63.5079 4.95092 63.2601 4.86109C63.0236 4.77126 62.7307 4.72635 62.3815 4.72635H60.4554V7.67372H62.5336ZM60.4554 8.51582V12.0527H62.6519C63.1474 12.0527 63.5473 11.9965 63.8515 11.8842C64.1668 11.772 64.4146 11.6204 64.5949 11.4295C64.899 11.1263 65.051 10.7614 65.051 10.3348C65.051 9.89688 64.8821 9.50951 64.5442 9.17267C64.1049 8.73477 63.491 8.51582 62.7026 8.51582H60.4554ZM68.9593 12.8948C68.8466 12.8948 68.7452 12.8555 68.6552 12.7769C68.5763 12.687 68.5369 12.586 68.5369 12.4737V4.3053C68.5369 4.19302 68.5707 4.09757 68.6383 4.01898C68.7171 3.92915 68.8073 3.88425 68.9086 3.88425H73.6394C73.7632 3.88425 73.8646 3.92355 73.9435 4.00214C74.0223 4.08073 74.0618 4.18178 74.0618 4.3053C74.0618 4.41757 74.0223 4.51863 73.9435 4.60846C73.8646 4.68705 73.7632 4.72635 73.6394 4.72635H69.3817V7.65688H72.9129C73.0367 7.65688 73.1381 7.69618 73.217 7.77477C73.2958 7.85336 73.3353 7.95442 73.3353 8.07793C73.3353 8.1902 73.2958 8.29126 73.217 8.38109C73.1381 8.45968 73.0367 8.49898 72.9129 8.49898H69.3817V12.0527H73.6732C73.797 12.0527 73.8984 12.092 73.9773 12.1706C74.0561 12.2492 74.0956 12.3502 74.0956 12.4737C74.0956 12.586 74.0561 12.687 73.9773 12.7769C73.8984 12.8555 73.797 12.8948 73.6732 12.8948H68.9593ZM82.954 12.8948C82.8301 12.8948 82.723 12.8442 82.633 12.7432L79.879 9.54319H77.615V12.4737C77.615 12.586 77.5755 12.687 77.4967 12.7769C77.4178 12.8555 77.3164 12.8948 77.1926 12.8948C77.0799 12.8948 76.9785 12.8555 76.8885 12.7769C76.8096 12.687 76.7702 12.586 76.7702 12.4737V4.3053C76.7702 4.18178 76.8096 4.08073 76.8885 4.00214C76.9785 3.92355 77.0799 3.88425 77.1926 3.88425H79.6763C80.3407 3.88425 80.9097 4.00776 81.3827 4.25477C81.867 4.50178 82.2387 4.83863 82.4978 5.2653C82.7682 5.68073 82.9033 6.16355 82.9033 6.71372C82.9033 7.32003 82.7344 7.87021 82.3965 8.36424C82.0698 8.85828 81.5572 9.20073 80.859 9.39161L83.275 12.2042C83.3426 12.2716 83.3764 12.3614 83.3764 12.4737C83.3764 12.5748 83.3369 12.6702 83.2581 12.76C83.1792 12.8499 83.0778 12.8948 82.954 12.8948ZM77.615 4.72635V8.70109H79.6763C80.4535 8.70109 81.0448 8.51021 81.4503 8.12846C81.8558 7.73547 82.0585 7.26389 82.0585 6.71372C82.0585 6.11863 81.8332 5.64144 81.3827 5.28214C80.9434 4.91161 80.3745 4.72635 79.6763 4.72635H77.615ZM95.374 4.99582C95.1036 4.88355 94.8051 4.79372 94.4785 4.72635C94.163 4.65898 93.7463 4.6253 93.2282 4.6253C92.6538 4.6253 92.1976 4.77126 91.8597 5.06319C91.5217 5.34389 91.3527 5.66389 91.3527 6.02319C91.3527 6.38249 91.5104 6.7081 91.8259 7.00003C92.1412 7.29197 92.7552 7.5446 93.6675 7.75793C94.4785 7.93757 95.1036 8.16776 95.5429 8.44846C95.9934 8.72915 96.3088 9.04915 96.4891 9.40845C96.6693 9.75652 96.7594 10.1439 96.7594 10.5706C96.7594 10.986 96.6524 11.3846 96.4384 11.7664C96.2356 12.1369 95.8977 12.4457 95.4247 12.6927C94.9628 12.9285 94.3433 13.0463 93.5661 13.0463C92.4623 13.0463 91.4429 12.7881 90.5081 12.2716C90.3615 12.1818 90.2884 12.0583 90.2884 11.9011C90.2884 11.8 90.3277 11.7046 90.4067 11.6148C90.4855 11.5249 90.5868 11.48 90.7108 11.48C90.7784 11.48 90.846 11.4969 90.9135 11.5306C91.7132 11.9797 92.5974 12.2042 93.5661 12.2042C94.332 12.2042 94.9121 12.047 95.3064 11.7327C95.7119 11.407 95.9146 11.0197 95.9146 10.5706C95.9146 10.099 95.7231 9.70599 95.3402 9.39161C94.9685 9.07723 94.3546 8.81336 93.4986 8.60003C92.6988 8.39793 92.0793 8.16776 91.6401 7.90951C91.212 7.65126 90.9135 7.35934 90.7446 7.03372C90.5869 6.7081 90.5081 6.34881 90.5081 5.95582C90.5081 5.59652 90.6094 5.25407 90.8122 4.92846C91.0261 4.59161 91.3359 4.31652 91.7414 4.10319C92.1469 3.88986 92.6424 3.78319 93.2282 3.78319C93.8477 3.78319 94.3433 3.83372 94.715 3.93477C95.098 4.0246 95.4978 4.15372 95.9146 4.32214C96.0948 4.38951 96.185 4.51863 96.185 4.70951C96.185 4.82178 96.1398 4.92284 96.0498 5.01267C95.9709 5.09126 95.8752 5.13056 95.7626 5.13056C95.74 5.13056 95.7062 5.12494 95.6612 5.11372C95.6161 5.09126 95.5204 5.05197 95.374 4.99582ZM106.582 12.8948C106.47 12.8948 106.368 12.8555 106.278 12.7769C106.199 12.687 106.16 12.586 106.16 12.4737V8.51582H100.5V12.4737C100.5 12.586 100.46 12.687 100.382 12.7769C100.303 12.8555 100.201 12.8948 100.078 12.8948C99.9648 12.8948 99.8634 12.8555 99.7734 12.7769C99.6945 12.687 99.6552 12.586 99.6552 12.4737V4.3053C99.6552 4.18178 99.6945 4.08073 99.7734 4.00214C99.8634 3.92355 99.9648 3.88425 100.078 3.88425C100.201 3.88425 100.303 3.92355 100.382 4.00214C100.46 4.08073 100.5 4.18178 100.5 4.3053V7.67372H106.16V4.3053C106.16 4.18178 106.199 4.08073 106.278 4.00214C106.368 3.92355 106.47 3.88425 106.582 3.88425C106.706 3.88425 106.808 3.92355 106.886 4.00214C106.965 4.08073 107.005 4.18178 107.005 4.3053V12.4737C107.005 12.586 106.965 12.687 106.886 12.7769C106.808 12.8555 106.706 12.8948 106.582 12.8948ZM114.098 3.73267C114.898 3.73267 115.625 3.92915 116.278 4.32214C116.942 4.71513 117.466 5.2653 117.849 5.97267C118.243 6.66881 118.441 7.47723 118.441 8.39793C118.441 9.27372 118.266 10.0653 117.917 10.7727C117.579 11.4688 117.083 12.0246 116.43 12.44C115.788 12.8442 115.011 13.0463 114.098 13.0463C113.242 13.0463 112.482 12.8442 111.818 12.44C111.153 12.0246 110.629 11.4688 110.246 10.7727C109.875 10.0765 109.689 9.30178 109.689 8.44846C109.689 7.5053 109.875 6.68003 110.246 5.97267C110.618 5.2653 111.13 4.71513 111.784 4.32214C112.448 3.92915 113.22 3.73267 114.098 3.73267ZM114.098 4.57477C113.389 4.57477 112.764 4.74319 112.223 5.08003C111.694 5.40565 111.277 5.86039 110.973 6.44424C110.68 7.01688 110.534 7.68494 110.534 8.44846C110.534 9.13336 110.68 9.76214 110.973 10.3348C111.277 10.9074 111.699 11.3621 112.24 11.699C112.781 12.0358 113.4 12.2042 114.098 12.2042C114.842 12.2042 115.473 12.0358 115.991 11.699C116.52 11.3621 116.92 10.9074 117.19 10.3348C117.461 9.75092 117.596 9.1053 117.596 8.39793C117.596 7.65688 117.438 7.00003 117.123 6.4274C116.819 5.85477 116.402 5.40565 115.873 5.08003C115.343 4.74319 114.752 4.57477 114.098 4.57477ZM121.543 12.8948C121.431 12.8948 121.329 12.8555 121.239 12.7769C121.16 12.687 121.121 12.586 121.121 12.4737V4.3053C121.121 4.18178 121.16 4.08073 121.239 4.00214C121.329 3.92355 121.431 3.88425 121.543 3.88425H123.96C124.624 3.88425 125.204 4.01898 125.7 4.28846C126.195 4.54671 126.578 4.90039 126.849 5.34951C127.13 5.79863 127.271 6.31513 127.271 6.89898C127.271 7.43793 127.147 7.93757 126.899 8.39793C126.663 8.85828 126.297 9.22881 125.801 9.50951C125.317 9.79021 124.703 9.93056 123.96 9.93056H121.966V12.4737C121.966 12.586 121.926 12.687 121.848 12.7769C121.769 12.8555 121.667 12.8948 121.543 12.8948ZM121.966 4.72635V9.08845H123.96C124.759 9.08845 125.367 8.88073 125.784 8.4653C126.212 8.03863 126.426 7.51652 126.426 6.89898C126.426 6.24776 126.195 5.72565 125.734 5.33267C125.272 4.92846 124.68 4.72635 123.96 4.72635H121.966Z" fill="white"/>
<path d="M2.08823 19.8504C2.26869 19.722 2.66829 19.7476 3.28702 19.9275C3.73819 20.056 4.13779 20.1203 4.48583 20.1203C4.75653 20.1203 5.08522 20.0625 5.47193 19.9468C5.85865 19.8183 6.16156 19.7476 6.38069 19.7347C6.59983 19.7091 6.80608 19.6899 6.99943 19.677C7.28302 19.6641 7.45059 19.722 7.50215 19.8504C7.51505 19.8762 7.52149 19.921 7.52149 19.9854C7.52149 20.1138 7.43771 20.2745 7.27013 20.4672C7.07678 20.7242 6.96076 20.8912 6.92209 20.9683C6.7803 21.2253 6.50316 21.4695 6.09067 21.7008C5.80707 21.8678 5.67818 22.1055 5.70396 22.4139C5.72974 22.8122 5.80707 23.4997 5.93598 24.4763C6.02622 25.1445 6.22602 25.6263 6.53538 25.9218C6.75452 26.1532 6.86409 26.4358 6.86409 26.7699C6.88987 27.2453 6.91565 27.5345 6.94143 27.6372C7.18635 28.1384 7.43771 28.7872 7.69551 29.5839C7.73419 30.2778 7.95976 30.9203 8.37224 31.5113C8.50115 31.6913 8.59139 31.9483 8.64294 32.2824C8.7074 32.6035 8.7654 32.9184 8.81697 33.2267C8.77829 33.4067 8.80407 33.6829 8.8943 34.0555C9.75796 35.7903 10.2736 36.6383 10.4411 36.5997C10.6732 36.587 10.8536 36.2978 10.9825 35.7324C11.1888 34.91 11.3177 34.441 11.3692 34.3254C11.4853 34.0684 11.6399 33.8435 11.8333 33.6508C12.0395 33.458 12.1427 33.3553 12.1427 33.3424C12.1942 33.1754 12.22 33.0276 12.22 32.8991C12.22 32.8478 12.2071 32.777 12.1813 32.6871C12.1684 32.5971 12.162 32.5264 12.162 32.4751C12.162 32.3466 12.2393 32.1988 12.394 32.0317C12.7163 31.5949 12.9547 31.0745 13.1094 30.4705C13.1997 29.9566 13.2963 29.4426 13.3995 28.9285C13.6444 28.4018 13.9408 27.5987 14.2889 26.5193C14.2116 26.3009 14.2116 25.9925 14.2889 25.5942C14.5724 25.2601 14.7336 24.9517 14.7723 24.6689C14.8109 24.2835 14.8496 23.898 14.8883 23.5125C14.9399 23.217 14.9656 23.0242 14.9656 22.9343C14.9656 22.8829 14.9205 22.7608 14.8304 22.5682C14.7401 22.3754 14.6434 22.067 14.5402 21.6429C14.4758 21.3859 14.3468 21.2317 14.1536 21.1804C13.8957 21.0904 13.7346 21.0197 13.6701 20.9683C13.2705 20.4158 13.0708 20.0882 13.0708 19.9854C13.0708 19.7797 13.1997 19.677 13.4575 19.677C13.7282 19.677 14.2051 19.7541 14.8883 19.9083C15.5843 20.0496 15.9775 20.1203 16.0678 20.1203C16.1837 20.0946 16.448 20.0432 16.8605 19.966C17.273 19.8889 17.5953 19.8504 17.8273 19.8504C17.9948 19.8504 18.2269 19.8825 18.5234 19.9468C18.8328 20.011 19.0776 20.0432 19.258 20.0432C19.5288 20.0432 19.8124 19.9918 20.1089 19.8889C20.4054 19.7862 20.5858 19.7347 20.6502 19.7347C20.9339 19.7347 21.0756 19.8247 21.0756 20.0046C21.0756 20.1459 20.8823 20.3387 20.4955 20.5829C20.0573 20.8784 19.806 21.0583 19.7416 21.1225C19.3677 21.5595 19.097 21.9642 18.9294 22.3368C18.8005 22.5938 18.7232 22.9664 18.6973 23.4547C18.6845 24.0201 18.6394 24.412 18.562 24.6304C18.5104 24.7589 18.3751 24.9324 18.156 25.1508C17.9497 25.3693 17.8209 25.5428 17.7693 25.6713C17.6791 25.9283 17.5953 26.3395 17.5179 26.9049C17.4535 27.4701 17.3697 27.8813 17.2666 28.1384C17.1763 28.3954 16.8412 29.07 16.2611 30.1621C15.9002 30.8817 15.7197 31.5499 15.7197 32.1667C15.7197 32.308 15.7262 32.4622 15.739 32.6292C15.7777 32.9249 15.623 33.3809 15.275 33.9978C14.8367 34.743 14.6048 35.1607 14.5789 35.2505C14.5661 35.5718 14.5145 36.0022 14.4242 36.542C14.2695 36.7604 14.0763 37.0816 13.8442 37.5057C13.5091 38.238 13.2705 38.977 13.1288 39.7222C13.1803 39.8507 13.2061 40.0628 13.2061 40.3583C13.0256 40.5382 12.8065 40.8401 12.5487 41.2641C12.6003 41.4568 12.626 41.7203 12.626 42.0543C12.3811 42.4913 12.0718 43.1466 11.6979 44.0204C11.6593 44.5343 11.511 45.2732 11.2532 46.2368C10.8923 46.9821 10.5636 47.3547 10.2671 47.3547C10.2027 47.3547 10.1382 47.3291 10.0738 47.2778C9.71284 47.0079 9.42281 46.5582 9.20368 45.9285C9.06187 45.4274 8.91364 44.9005 8.75896 44.348C8.7074 44.1809 8.7074 43.9112 8.75896 43.5385C8.81051 43.1659 8.81051 42.896 8.75896 42.7289C8.7074 42.562 8.58494 42.3563 8.39158 42.1122C8.19823 41.8553 8.07577 41.6625 8.02421 41.5339C7.94687 41.1228 7.79219 40.5446 7.56016 39.7993C7.43125 39.6193 7.26368 39.3303 7.05744 38.932C7.109 38.7649 7.13478 38.5143 7.13478 38.1803C7.109 38.0517 6.99299 37.8912 6.78674 37.6984C6.5805 37.4928 6.44515 37.3385 6.38069 37.2358C6.21312 36.8888 6.06489 36.3235 5.93598 35.5397C5.9102 35.4241 5.86509 34.8843 5.80063 33.9207C5.7233 33.2653 5.61373 32.7449 5.47193 32.3595C4.81453 30.7275 4.43427 29.7767 4.33114 29.5068C4.02178 28.6716 3.84776 27.9328 3.80908 27.2903C3.7833 26.635 3.58995 25.9989 3.22902 25.3821C2.86809 24.7525 2.51361 24.1229 2.16556 23.4933C1.99799 23.0692 1.77241 22.5617 1.48883 21.9707C1.32126 21.8164 1.08278 21.5272 0.773419 21.1033C0.734748 21.0518 0.580063 20.8849 0.309367 20.6021C0.103122 20.3708 0 20.1974 0 20.0817C0 19.8118 0.167574 19.677 0.502721 19.677C0.528503 19.677 0.773419 19.7605 1.23747 19.9275C1.55973 20.0303 1.84331 20.0046 2.08823 19.8504ZM33.7597 19.2914C33.9531 19.6641 34.0497 20.0367 34.0497 20.4093C34.0497 20.5635 34.069 20.6921 34.1077 20.7949C34.2624 21.0389 34.4557 21.418 34.6878 21.9321C34.8425 22.2147 34.9198 22.5682 34.9198 22.9921C34.9198 23.4418 34.9456 23.7695 34.9972 23.9751C35.1906 24.3092 35.4612 24.8489 35.8092 25.5942C35.9253 26.121 36.0992 26.9176 36.3313 27.9842C36.4602 28.2283 36.6278 28.6203 36.8341 29.1599C36.9242 29.5583 37.0983 30.13 37.3561 30.8753C37.5366 31.0809 37.7621 31.4021 38.0329 31.8391C38.1102 32.263 38.2584 32.867 38.4776 33.6508C38.6451 33.8435 38.8384 34.1584 39.0575 34.5953C39.0575 35.0064 39.1221 35.6296 39.2509 36.4649C39.47 37.1972 39.6893 37.5634 39.9084 37.5634C40.1146 37.5634 40.6431 37.5057 41.4938 37.39C41.8806 37.3385 42.2157 37.0559 42.4994 36.542C42.6927 36.1821 42.8989 36.0022 43.118 36.0022C43.2727 36.0022 43.3501 36.1308 43.3501 36.3878C43.2857 36.9659 43.3049 37.7049 43.408 38.6043C43.5241 38.887 43.5757 39.1504 43.5627 39.3945C43.5241 39.6258 43.479 39.8635 43.4274 40.1076C43.4274 40.2362 43.4596 40.4096 43.5241 40.628C43.6014 40.8466 43.6401 40.9943 43.6401 41.0714C43.6401 41.1613 43.5949 41.2128 43.5048 41.2255C43.3243 41.2641 43.1051 41.1742 42.8473 40.9558C42.538 40.6217 42.3382 40.4354 42.2479 40.3968C42.0675 40.2939 41.8678 40.1783 41.6485 40.0499C41.4423 39.9213 41.2682 39.8571 41.1265 39.8571C40.8429 39.8571 40.7012 40.0563 40.7012 40.4546C40.7012 40.6217 40.8235 41.0264 41.0685 41.6689C41.1716 41.8359 41.3134 42.1058 41.4938 42.4784C41.4294 42.5941 41.3714 42.7675 41.3198 42.9988C41.4229 43.1145 41.6035 43.3714 41.8613 43.7697C42.1319 44.1553 42.5638 44.7784 43.1567 45.6393C43.2598 45.6908 43.3758 45.7422 43.5048 45.7935C43.711 45.8835 43.8142 45.9671 43.8142 46.0442C43.8142 46.0828 43.7883 46.1084 43.7368 46.1212C43.002 46.2883 42.1319 46.3654 41.1265 46.3525C40.959 46.3525 40.7012 46.3139 40.3531 46.2368C40.018 46.1597 39.7666 46.1212 39.599 46.1212C39.4056 46.1212 39.2381 46.1534 39.0962 46.2176C38.9674 46.2818 38.7547 46.3268 38.4582 46.3525C38.1489 46.3654 37.949 46.3525 37.8588 46.3139C37.7814 46.2754 37.7429 46.2433 37.7429 46.2176C37.7429 46.192 37.8073 46.1149 37.9361 45.9863C38.0651 45.8579 38.1295 45.7485 38.1295 45.6587C38.1295 45.5687 38.1876 45.4595 38.3036 45.331C38.4195 45.2025 38.4776 45.0933 38.4776 45.0033C38.4776 44.9262 38.4195 44.8363 38.3036 44.7335C38.1876 44.6179 38.1295 44.5343 38.1295 44.4829C38.1811 44.3159 38.2455 44.0589 38.3229 43.712C38.2326 43.0951 38.0651 42.4399 37.8201 41.746C37.601 41.1678 37.4657 40.8016 37.4141 40.6474C37.2336 40.2362 37.0661 39.9728 36.9114 39.8571C36.8469 39.8057 36.7502 39.78 36.6213 39.78C36.4925 39.78 36.3184 39.8121 36.0992 39.8764C35.8028 39.9792 35.6094 40.0305 35.5192 40.0305C35.1454 40.0563 34.6104 39.9984 33.9144 39.8571C33.7211 39.8185 33.3537 39.8314 32.8123 39.8957C32.2837 39.9599 32.0195 39.992 32.0195 39.992C32.0195 39.9792 32.0389 39.9728 32.0776 39.9728C31.6779 39.8957 31.2654 39.9278 30.8401 40.0691C30.6209 40.172 30.2664 40.2233 29.7766 40.2233C29.2868 40.2233 28.9774 40.2812 28.8485 40.3968C28.7325 40.4996 28.6744 40.7374 28.6744 41.11C28.6874 41.5854 28.6809 41.8553 28.6552 41.9195C28.436 42.3949 28.1846 43.1145 27.9011 44.0782C27.8881 44.2453 27.9913 44.515 28.2105 44.8876C28.4425 45.2732 28.5584 45.543 28.5584 45.6972C28.5584 45.9799 28.4296 46.1212 28.1718 46.1212C28.1588 46.1212 27.9784 46.0955 27.6303 46.0442C27.4112 46.0057 27.2501 46.0184 27.147 46.0828C27.0439 46.147 26.8762 46.1534 26.6442 46.102C26.309 46.0249 26.1286 45.9863 26.1029 45.9863C26.2962 45.9863 25.3874 46.0313 23.3766 46.1212C22.9769 46.1212 22.7772 46.0313 22.7772 45.8514C22.7772 45.6716 23.0285 45.3374 23.5312 44.8492C23.8793 44.4637 24.1178 44.2067 24.2466 44.0782C24.4916 43.7697 24.6785 43.4742 24.8073 43.1916C24.846 43.1016 24.8203 42.9667 24.7301 42.7868C24.6528 42.6068 24.6204 42.4591 24.6333 42.3435C24.6333 42.3307 24.917 41.7396 25.4841 40.5703C25.5099 40.5703 25.5873 40.4867 25.7161 40.3197C25.7805 40.2168 25.787 40.127 25.7355 40.0499C25.5551 39.7543 25.2972 39.6708 24.962 39.7993C24.8332 39.8507 24.4851 40.1076 23.9179 40.5703C23.4668 40.93 23.1124 41.1035 22.8546 41.0907C22.6483 41.0521 22.5452 40.9043 22.5452 40.6474C22.5452 40.6474 22.6096 40.2812 22.7385 39.5487C22.7643 39.4845 22.8352 39.3624 22.9512 39.1825C23.0672 38.9897 23.1252 38.8292 23.1252 38.7007C23.1252 38.6107 23.0865 38.4887 23.0091 38.3345C22.9447 38.1674 22.8996 38.0454 22.8738 37.9683C22.8996 37.6599 22.8803 37.223 22.8159 36.6576C22.7256 36.5805 22.616 36.4584 22.4871 36.2913C22.4743 36.0729 22.6031 35.9445 22.8738 35.9059C23.1316 35.8801 23.3379 35.9124 23.4926 36.0022C23.7246 36.1821 24.1629 36.4841 24.8073 36.9082C25.1941 37.1266 25.6066 37.2358 26.0448 37.2358C26.3027 37.2358 26.5089 37.1587 26.6636 37.0045C26.8183 36.8503 26.9665 36.2143 27.1083 35.0963C27.1856 34.9293 27.2695 34.6851 27.3596 34.3639C27.4886 34.107 27.6497 33.6829 27.8431 33.0918C27.7399 32.9633 27.7142 32.7642 27.7658 32.4943C27.8044 32.4172 27.959 32.096 28.2297 31.5307C28.4231 31.1708 28.6809 30.6183 29.0032 29.873C29.0804 29.5775 29.1901 29.1728 29.3319 28.6588C29.4866 28.4788 29.6606 28.2155 29.8539 27.8685C29.8797 27.6243 29.9378 27.2582 30.0279 26.7699C30.1569 26.59 30.2986 26.3009 30.4533 25.9025C30.4404 25.8768 30.4147 25.8576 30.376 25.8447C30.5951 25.4721 30.8788 24.9067 31.2267 24.1485C31.4845 23.2491 31.8583 22.0541 32.3482 20.5635C32.3868 20.2295 32.4964 19.7733 32.677 19.1951C32.9089 18.6812 33.083 18.4241 33.199 18.4241C33.2634 18.4241 33.4503 18.7133 33.7597 19.2914ZM33.489 29.6803C33.4633 29.6546 33.4052 29.4939 33.315 29.1984C33.2377 28.98 33.1668 28.8708 33.1023 28.8708C32.9476 28.8708 32.8187 29.0892 32.7156 29.526C32.664 29.8474 32.5996 30.1493 32.5223 30.432C32.3546 30.6504 32.1549 31.0167 31.9229 31.5307C31.8583 31.7876 31.7746 32.1795 31.6714 32.7063C31.5426 33.0147 31.3557 33.4645 31.1107 34.0555C31.0849 34.351 30.9754 34.788 30.782 35.3662C30.666 35.5075 30.505 35.7067 30.2986 35.9637C29.9506 36.5547 29.7766 36.876 29.7766 36.9274C29.7766 37.0045 29.7959 37.0751 29.8345 37.1395C29.8862 37.2037 30.1053 37.223 30.492 37.1972C31.0205 37.1587 31.3041 37.1395 31.3427 37.1395C32.1162 37.2037 32.4514 37.2358 32.3482 37.2358C32.5415 37.2358 32.9025 37.3322 33.4309 37.5249C33.5212 37.5892 33.6824 37.5828 33.9144 37.5057C34.1593 37.4285 34.3075 37.4093 34.3591 37.4479C34.5009 37.5378 34.6878 37.5828 34.9198 37.5828C35.1132 37.5828 35.3259 37.5249 35.5579 37.4093C35.8028 37.2937 35.9253 37.1395 35.9253 36.9467C35.9253 36.8825 35.8866 36.7539 35.8092 36.5612C35.7448 36.3557 35.719 36.1885 35.7319 36.0601C35.7576 35.8032 35.6739 35.3983 35.4806 34.8458C35.4548 34.743 35.1647 34.062 34.6104 32.8028C34.4687 32.52 34.2753 32.096 34.0303 31.5307C33.9918 31.3635 33.9594 31.113 33.9337 30.7789C33.9208 30.4449 33.8886 30.1943 33.8371 30.0272C33.7597 29.9501 33.6437 29.8345 33.489 29.6803ZM51.7416 20.4672C51.7416 20.5829 51.6063 20.8655 51.3356 21.3153C51.0778 21.7521 50.9102 22.0926 50.8328 22.3368C50.704 22.5038 50.5558 22.7672 50.3881 23.1271C50.2077 24.6304 50.1175 26.3201 50.1175 28.1962C50.1175 28.2476 50.1626 28.3375 50.2528 28.466C50.343 28.5817 50.3881 28.6651 50.3881 28.7166C50.3881 28.8451 50.3559 29.0442 50.2915 29.3141C50.2399 29.5839 50.2142 29.7832 50.2142 29.9116C50.2142 30.1685 50.2399 30.5347 50.2915 31.0103C50.343 31.5242 50.3753 31.8968 50.3881 32.1282C50.4268 33.1047 50.4268 33.9013 50.3881 34.5182C50.3881 34.5696 50.3559 34.6595 50.2915 34.788C50.2399 34.9037 50.2142 34.9871 50.2142 35.0385C50.2142 35.1285 50.2399 35.2699 50.2915 35.4626C50.3559 35.6553 50.3881 35.7967 50.3881 35.8866C50.3881 35.938 50.3559 36.0151 50.2915 36.1179C50.2399 36.2079 50.2142 36.2785 50.2142 36.3299C50.2271 36.15 50.2593 36.5226 50.3108 37.4479C50.3624 38.3601 50.3881 38.8999 50.3881 39.0668C50.3881 39.1568 50.3559 39.2789 50.2915 39.433C50.2399 39.5745 50.2142 39.6772 50.2142 39.7414C50.2142 39.87 50.2399 40.0691 50.2915 40.3389C50.3559 40.6088 50.3881 40.8143 50.3881 40.9558C50.3881 41.0071 50.3495 41.11 50.2721 41.2641C50.2077 41.4055 50.1884 41.5018 50.2142 41.5533C50.3559 41.9259 50.588 42.1572 50.9102 42.2471C51.1422 42.3113 51.4452 42.3371 51.819 42.3242C52.3346 42.3113 52.631 42.3113 52.7084 42.3242C53.1595 42.3628 53.8428 42.427 54.758 42.517C55.2993 42.5555 55.8343 42.5941 56.3628 42.6326C56.9687 42.6583 57.4713 42.6197 57.871 42.517C58.0515 42.4399 58.2319 42.2728 58.4123 42.0158C58.696 41.656 58.8635 41.4504 58.9151 41.3991C59.1472 41.1549 59.4242 40.808 59.7466 40.3583C59.7594 40.3197 59.7852 40.3004 59.8239 40.3004C59.927 40.3004 60.0173 40.3904 60.0945 40.5703C60.1719 40.7501 60.2105 40.93 60.2105 41.11C60.2105 41.187 60.1977 41.2641 60.1719 41.3412C59.9786 41.868 59.8819 42.4142 59.8819 42.9796C59.8948 43.5578 59.9013 44.136 59.9013 44.7142C59.9399 45.0612 59.9013 45.4595 59.7852 45.9092C59.695 46.0249 59.405 46.0249 58.9151 45.9092C58.6701 45.8193 58.3222 45.71 57.871 45.5816C57.7937 45.5687 57.6777 45.5945 57.523 45.6587C57.3683 45.7229 57.2522 45.755 57.1749 45.755C56.9944 45.755 56.7689 45.7229 56.4981 45.6587C56.1502 45.6072 55.9181 45.5816 55.8021 45.5816C55.0545 45.5045 54.4873 45.4659 54.1005 45.4659C53.6623 45.4916 52.9469 45.5301 51.9544 45.5816C51.0391 45.633 50.3302 45.6587 49.8274 45.6587C49.6727 45.6587 49.4601 45.6266 49.1893 45.5622C48.9316 45.498 48.7382 45.4659 48.6094 45.4659C48.3386 45.4659 47.9197 45.5174 47.3525 45.6201C46.7853 45.7229 46.3728 45.7743 46.115 45.7743C45.8185 45.7743 45.5543 45.7358 45.3222 45.6587C45.2449 45.6458 45.2062 45.6008 45.2062 45.5237C45.2062 45.4338 45.2772 45.2796 45.419 45.0612C45.6124 44.7528 45.7155 44.5793 45.7284 44.5408C45.8572 44.4122 46.0119 44.2195 46.1924 43.9625C46.5275 43.4871 46.7016 43.2301 46.7144 43.1916C46.9335 42.8832 47.056 42.5941 47.0818 42.3242C47.0173 41.9645 46.9659 41.4247 46.9272 40.7051C46.9659 40.628 47.0238 40.5188 47.1012 40.3775C47.1914 40.2362 47.23 40.1076 47.2172 39.992C47.2172 39.9407 47.1463 39.9021 47.0045 39.8764C46.8626 39.8507 46.7918 39.8057 46.7918 39.7414C46.6887 39.2917 46.6887 38.8099 46.7918 38.2959C46.9594 38.0903 47.1334 37.7691 47.3138 37.3322C47.3397 37.1137 47.3332 36.8118 47.2945 36.4263C47.2559 35.9251 47.23 35.636 47.2172 35.5589C47.23 35.3276 47.23 34.9808 47.2172 34.5182C47.1398 34.441 47.0431 34.2933 46.9272 34.0749C46.9272 33.9463 46.9594 33.76 47.0238 33.5159C47.0882 33.2717 47.1204 33.0854 47.1204 32.957C47.185 32.3401 47.185 31.7747 47.1204 31.2608C47.1204 31.1322 47.0754 30.9203 46.9851 30.6247C46.8948 30.3163 46.8498 30.0787 46.8498 29.9116C46.8756 29.8217 46.94 29.7124 47.0431 29.5839C47.1591 29.4554 47.2172 29.3591 47.2172 29.2949C47.2172 29.2305 47.1591 29.1857 47.0431 29.1599C46.94 29.1213 46.8756 29.0828 46.8498 29.0442C46.7853 28.7487 46.766 28.2925 46.7918 27.6758C46.8304 27.4316 46.8756 27.0526 46.9272 26.5385C46.9916 26.0117 47.056 25.2151 47.1204 24.1485C47.1463 24.1229 47.1785 24.0266 47.2172 23.8595C47.2559 23.7182 47.2559 23.6089 47.2172 23.5318C46.9722 23.1592 46.6306 22.5682 46.1924 21.7585C45.8056 21.0775 45.6124 20.6021 45.6124 20.3322C45.6124 20.1138 45.7219 20.0046 45.941 20.0046C46.1085 20.0046 46.3278 20.0688 46.5984 20.1974C46.7531 20.2745 46.9594 20.2937 47.2172 20.2551C47.5266 20.2038 47.7263 20.1845 47.8166 20.1974C47.8681 20.1974 47.9391 20.2295 48.0292 20.2937C48.1195 20.358 48.1969 20.3901 48.2613 20.3901C48.4547 20.3001 48.7641 20.2103 49.1893 20.1203C49.357 20.1203 49.6018 20.101 49.9242 20.0625C50.2593 20.011 50.5299 19.9854 50.7362 19.9854C51.4065 19.9854 51.7416 20.1459 51.7416 20.4672ZM66.7654 21.3924C66.4946 21.6237 66.3205 22.022 66.2432 22.5874C66.2691 22.96 66.2883 23.506 66.3013 24.2257C66.3013 24.4313 66.2432 24.6497 66.1273 24.881C66.0241 25.0995 65.9726 25.3821 65.9726 25.7291C65.9467 26.333 65.9467 26.7185 65.9726 26.8855C65.9854 27.7079 66.0113 28.5303 66.0499 29.3526C66.1014 30.3292 66.211 30.8817 66.3786 31.0103C66.456 31.0616 66.5848 31.0874 66.7654 31.0874C67.6031 31.0874 68.1639 30.9459 68.4475 30.6633C68.5377 30.5733 68.5828 30.3549 68.5828 30.008C68.5828 29.3655 68.4733 28.7616 68.2542 28.1962C68.2284 28.0163 68.1897 27.785 68.1381 27.5024C68.0995 27.4124 67.9512 27.2067 67.6934 26.8855C67.5001 26.6285 67.4034 26.4229 67.4034 26.2688C67.4034 26.0246 67.6483 25.9089 68.1381 25.9218C68.2799 25.9347 68.3959 25.986 68.4862 26.076C68.5893 26.1532 68.6859 26.1917 68.7762 26.1917C68.918 26.1917 69.1822 26.121 69.569 25.9796C70.0072 25.8254 70.5809 25.8318 71.2898 25.9989C71.3542 25.9989 71.5283 25.9732 71.8119 25.9218C72.0439 25.8833 72.1664 25.9218 72.1792 26.0375C72.1921 26.1917 72.0632 26.4551 71.7925 26.8278C71.5219 27.1875 71.3736 27.4445 71.3478 27.5987C71.2189 28.8708 71.2189 29.5518 71.3478 29.6417C71.5927 29.7574 72.3726 29.4683 73.6874 28.7745C73.8164 28.6974 73.8164 28.3568 73.6874 27.7529C73.5843 27.226 73.5327 26.5322 73.5327 25.6713C73.5327 25.6328 73.5584 25.5684 73.6101 25.4785C73.6617 25.3885 73.6874 25.3179 73.6874 25.2664C73.6874 25.1766 73.6617 24.9388 73.6101 24.5533C73.5327 24.0008 73.3845 23.1784 73.1654 22.0862C73.1267 21.9834 72.9914 21.8035 72.7593 21.5466C72.5402 21.2896 72.4305 21.0968 72.4305 20.9683C72.4305 20.6728 72.6755 20.5185 73.1654 20.5058C73.4748 20.48 73.8034 20.525 74.1515 20.6407C74.435 20.7049 74.7186 20.7371 75.0022 20.7371C75.4276 20.7371 75.9625 20.6471 76.607 20.4672C77.3547 20.2359 77.8639 20.1909 78.1345 20.3322C78.2248 20.3837 78.2699 20.4672 78.2699 20.5829C78.2699 20.7242 78.1539 20.9812 77.9218 21.3538C77.6641 21.7907 77.5158 22.0349 77.4772 22.0862C77.3482 22.2918 77.1742 22.613 76.9551 23.05C76.9551 23.2684 76.8907 23.6346 76.7617 24.1485C76.5813 24.5597 76.5619 25.1508 76.7038 25.9218C76.7295 26.0888 76.7295 26.2174 76.7038 26.3074C76.6522 26.4487 76.6264 26.5835 76.6264 26.7121C76.6264 26.9562 76.6715 27.316 76.7617 27.7914C76.8391 28.1512 76.7553 28.5624 76.5104 29.025C76.4588 29.1149 76.4331 29.2113 76.4331 29.3141C76.4331 29.4812 76.491 29.6867 76.607 29.9309C76.736 30.1621 76.8004 30.2842 76.8004 30.2971C76.8261 30.5797 76.8326 30.9588 76.8197 31.4342C76.8069 31.6784 76.7682 32.0703 76.7038 32.61C76.6909 32.7899 76.6909 33.0789 76.7038 33.4774C76.781 34.2868 76.8648 35.4818 76.9551 37.0624C76.9938 37.7434 76.9938 38.2638 76.9551 38.6235C76.8778 38.9191 76.7939 39.3496 76.7038 39.915C76.7295 39.6708 76.7617 40.2168 76.8004 41.5533C76.736 41.9387 76.7038 42.4334 76.7038 43.0374C76.8584 43.3843 77.0066 44.001 77.1485 44.8876C77.1613 45.0418 77.3419 45.3246 77.6898 45.7358C78.0379 46.1597 78.2118 46.4296 78.2118 46.5453C78.2118 46.6738 78.0895 46.738 77.8445 46.738C77.7285 46.738 77.561 46.693 77.3419 46.6032C77.1226 46.526 76.9422 46.4875 76.8004 46.4875C76.6844 46.4875 76.5361 46.5132 76.3557 46.5646C76.1881 46.6159 76.0657 46.6417 75.9884 46.6417C75.8981 46.6417 75.7112 46.5709 75.4276 46.4296C75.144 46.3012 74.8669 46.2112 74.5962 46.1597C74.4672 46.1341 74.2094 46.2047 73.8227 46.3718C73.4361 46.5388 73.1073 46.6224 72.8367 46.6224C72.5015 46.6224 72.3339 46.5646 72.3339 46.4489C72.3339 46.3589 72.4951 46.0699 72.8173 45.5816C73.1396 45.1062 73.3136 44.7721 73.3393 44.5793C73.3652 44.3866 73.3974 44.001 73.4361 43.4229C73.4618 43.1659 73.5327 42.8832 73.6487 42.5747C73.7647 42.2664 73.8227 42.0287 73.8227 41.8616C73.8227 41.656 73.7712 41.4183 73.668 41.1485C73.5908 40.9943 73.5521 40.6217 73.5521 40.0305C73.5521 39.7093 73.5778 39.4074 73.6293 39.1247C73.5778 38.9962 73.5134 38.8549 73.4361 38.7007C73.4748 38.3537 73.5134 38.0004 73.5521 37.6405C73.5908 37.2422 73.5843 36.876 73.5327 36.542C73.494 36.3749 73.5198 36.1179 73.6101 35.7709C73.7003 35.4112 73.7453 35.1607 73.7453 35.0192C73.7196 34.8008 73.6809 34.6595 73.6293 34.5953C73.5778 34.531 73.5714 34.3896 73.6101 34.1712C73.739 33.4516 73.739 32.8734 73.6101 32.4366C73.5714 32.308 73.3974 32.2824 73.088 32.3595C72.276 32.5521 71.7345 32.7513 71.4638 32.957C71.3478 33.0468 71.3027 33.2396 71.3285 33.5351C71.3672 34.0105 71.3864 34.2291 71.3864 34.1905C71.3864 34.3704 71.3414 34.7174 71.2511 35.2313C71.1867 35.5654 71.1931 35.9124 71.2704 36.2721C71.438 37.1074 71.6185 37.6084 71.8119 37.7755C72.1341 38.071 72.2952 38.328 72.2952 38.5464C72.2952 38.7263 72.1664 38.8163 71.9085 38.8163C71.7797 38.8163 71.5411 38.7521 71.1931 38.6235C70.8451 38.4822 70.5937 38.418 70.4391 38.4308C70.3101 38.4693 70.1941 38.4887 70.091 38.4887C69.9621 38.4887 69.801 38.4629 69.6076 38.4116C69.4143 38.3601 69.2531 38.3345 69.1243 38.3345C68.9566 38.3345 68.7955 38.3666 68.6409 38.4308C68.0737 38.675 67.7321 38.797 67.6161 38.797C67.2551 38.797 67.0746 38.6878 67.0746 38.4693C67.0746 38.3795 67.1714 38.2188 67.3648 37.9875C67.558 37.7434 67.6612 37.5828 67.674 37.5057C67.7514 37.3643 67.8996 37.1009 68.1187 36.7154C68.1833 36.5226 68.2284 36.2978 68.2542 36.0408C68.2928 35.7709 68.3186 35.4947 68.3315 35.212C68.3443 34.8779 68.2799 34.6209 68.1381 34.441C68.0608 34.3896 67.9964 34.3639 67.9447 34.3639C67.8545 34.3639 67.7256 34.4089 67.558 34.4988C67.3389 34.6017 67.2101 34.6659 67.1714 34.6916C66.8877 34.7559 66.5139 34.9164 66.0499 35.1734C66.0499 35.3791 66.0499 35.636 66.0499 35.9445C66.0499 36.0343 66.037 36.1435 66.0113 36.2721C65.9854 36.4007 65.9726 36.5355 65.9726 36.6768C65.9726 36.8054 65.9983 37.0045 66.0499 37.2743C66.1014 37.5313 66.1273 37.737 66.1273 37.8912C66.1273 38.0196 66.1014 38.1995 66.0499 38.4308C65.9983 38.6492 65.9726 38.8355 65.9726 38.9897C65.9726 39.1696 65.9983 39.4138 66.0499 39.7222C66.1014 40.0178 66.1273 40.2554 66.1273 40.4354C66.1273 40.5638 66.1014 40.763 66.0499 41.0329C65.9983 41.3026 65.9726 41.5018 65.9726 41.6304C65.9726 41.8488 66.0113 42.1508 66.0886 42.5362C66.1788 42.9732 66.2304 43.2687 66.2432 43.4229C66.2432 43.8597 66.2626 44.4893 66.3013 45.3117C66.4688 45.6072 66.6493 46.0442 66.8426 46.6224C66.8813 46.7124 66.8362 46.7766 66.7073 46.8151C66.6042 46.828 66.4752 46.828 66.3205 46.8151C66.1788 46.7766 66.0627 46.7316 65.9726 46.6803C65.6375 46.5003 65.3732 46.4104 65.1798 46.4104C65.0895 46.4104 64.9672 46.4425 64.8125 46.5067C64.6706 46.5709 64.5417 46.6032 64.4257 46.6032C64.3354 46.6032 64.2066 46.5709 64.039 46.5067C63.8843 46.4554 63.749 46.4296 63.6329 46.4296C63.4268 46.4296 63.2075 46.481 62.9756 46.5838C62.7436 46.6866 62.5759 46.738 62.4728 46.738C62.3181 46.738 62.157 46.6417 61.9895 46.4489C61.9378 46.3846 61.9121 46.3139 61.9121 46.2368C61.9121 46.1597 61.9895 46.0505 62.1442 45.9092C62.2989 45.7679 62.3955 45.6522 62.4342 45.5622C62.5759 45.3696 62.7177 45.0547 62.8596 44.6179C62.8466 44.0396 62.9433 42.9924 63.1496 41.4762C63.2527 41.0392 63.214 40.2426 63.0336 39.0862C62.9562 38.6364 62.8918 38.1932 62.8402 37.7562C62.8015 37.3708 62.8402 36.9403 62.9562 36.4649C63.1366 35.7582 63.1366 35.0192 62.9562 34.2483C62.7887 33.5672 62.795 32.8092 62.9756 31.9739C63.1174 31.203 63.1109 30.4449 62.9562 29.6996C62.75 28.7872 62.7306 28.0291 62.8983 27.4253C63.0787 26.8084 63.0658 26.031 62.8596 25.093C62.7693 24.6947 62.7177 24.2064 62.7049 23.6282C62.7564 23.4097 62.7822 23.0949 62.7822 22.6837C62.6533 22.4653 62.4406 22.1505 62.1442 21.7393C62.1312 21.7008 62.0217 21.5595 61.8155 21.3153C61.6736 21.161 61.6027 21.0326 61.6027 20.9297C61.6027 20.8399 61.6673 20.7628 61.7961 20.6985C61.9378 20.6214 62.1764 20.6085 62.5115 20.66C62.8724 20.7113 63.1044 20.7307 63.2075 20.7178C63.3235 20.7049 63.4654 20.7307 63.6329 20.7949C63.8134 20.8591 63.981 20.8912 64.1357 20.8912C64.4193 20.8912 64.7738 20.7949 65.1991 20.6021C65.5858 20.4608 65.9791 20.3901 66.3786 20.3901C66.9071 20.3901 67.1714 20.5185 67.1714 20.7757C67.1714 20.9426 67.036 21.1483 66.7654 21.3924ZM90.9539 19.2914C91.1473 19.6641 91.244 20.0367 91.244 20.4093C91.244 20.5635 91.2633 20.6921 91.302 20.7949C91.4567 21.0389 91.65 21.418 91.8821 21.9321C92.0368 22.2147 92.1141 22.5682 92.1141 22.9921C92.1141 23.4418 92.1399 23.7695 92.1915 23.9751C92.3847 24.3092 92.6555 24.8489 93.0035 25.5942C93.1196 26.121 93.2935 26.9176 93.5256 27.9842C93.6544 28.2283 93.822 28.6203 94.0284 29.1599C94.1185 29.5583 94.2925 30.13 94.5504 30.8753C94.7308 31.0809 94.9564 31.4021 95.2271 31.8391C95.3044 32.263 95.4527 32.867 95.6718 33.6508C95.8393 33.8435 96.0327 34.1584 96.2518 34.5953C96.2518 35.0064 96.3164 35.6296 96.4452 36.4649C96.6643 37.1972 96.8834 37.5634 97.1027 37.5634C97.3089 37.5634 97.8374 37.5057 98.6881 37.39C99.0748 37.3385 99.41 37.0559 99.6935 36.542C99.8869 36.1821 100.093 36.0022 100.312 36.0022C100.467 36.0022 100.544 36.1308 100.544 36.3878C100.48 36.9659 100.499 37.7049 100.602 38.6043C100.718 38.887 100.77 39.1504 100.757 39.3945C100.718 39.6258 100.673 39.8635 100.622 40.1076C100.622 40.2362 100.654 40.4096 100.718 40.628C100.796 40.8466 100.834 40.9943 100.834 41.0714C100.834 41.1613 100.789 41.2128 100.699 41.2255C100.518 41.2641 100.299 41.1742 100.042 40.9558C99.7322 40.6217 99.5325 40.4354 99.4422 40.3968C99.2618 40.2939 99.0619 40.1783 98.8428 40.0499C98.6366 39.9213 98.4625 39.8571 98.3207 39.8571C98.0372 39.8571 97.8953 40.0563 97.8953 40.4546C97.8953 40.6217 98.0178 41.0264 98.2628 41.6689C98.3659 41.8359 98.5077 42.1058 98.6881 42.4784C98.6237 42.5941 98.5657 42.7675 98.5141 42.9988C98.6172 43.1145 98.7977 43.3714 99.0554 43.7697C99.3262 44.1553 99.7581 44.7784 100.351 45.6393C100.454 45.6908 100.57 45.7422 100.699 45.7935C100.905 45.8835 101.008 45.9671 101.008 46.0442C101.008 46.0828 100.983 46.1084 100.931 46.1212C100.196 46.2883 99.3262 46.3654 98.3207 46.3525C98.1532 46.3525 97.8953 46.3139 97.5474 46.2368C97.2122 46.1597 96.9608 46.1212 96.7933 46.1212C96.5999 46.1212 96.4323 46.1534 96.2905 46.2176C96.1617 46.2818 95.9489 46.3268 95.6524 46.3525C95.343 46.3654 95.1433 46.3525 95.053 46.3139C94.9757 46.2754 94.937 46.2433 94.937 46.2176C94.937 46.192 95.0016 46.1149 95.1304 45.9863C95.2594 45.8579 95.3238 45.7485 95.3238 45.6587C95.3238 45.5687 95.3817 45.4595 95.4977 45.331C95.6138 45.2025 95.6718 45.0933 95.6718 45.0033C95.6718 44.9262 95.6138 44.8363 95.4977 44.7335C95.3817 44.6179 95.3238 44.5343 95.3238 44.4829C95.3754 44.3159 95.4398 44.0589 95.5171 43.712C95.4269 43.0951 95.2593 42.4399 95.0144 41.746C94.7952 41.1678 94.66 40.8016 94.6083 40.6474C94.4279 40.2362 94.2603 39.9728 94.1056 39.8571C94.0412 39.8057 93.9445 39.78 93.8156 39.78C93.6867 39.78 93.5126 39.8121 93.2935 39.8764C92.9971 39.9792 92.8037 40.0305 92.7135 40.0305C92.3397 40.0563 91.8047 39.9984 91.1086 39.8571C90.9153 39.8185 90.5479 39.8314 90.0065 39.8957C89.478 39.9599 89.2138 39.992 89.2138 39.992C89.2138 39.9792 89.233 39.9728 89.2717 39.9728C88.8722 39.8957 88.4597 39.9278 88.0342 40.0691C87.8151 40.172 87.4607 40.2233 86.9709 40.2233C86.481 40.2233 86.1716 40.2812 86.0427 40.3968C85.9268 40.4996 85.8687 40.7374 85.8687 41.11C85.8816 41.5854 85.8752 41.8553 85.8494 41.9195C85.6302 42.3949 85.3789 43.1145 85.0953 44.0782C85.0824 44.2453 85.1855 44.515 85.4046 44.8876C85.6367 45.2732 85.7527 45.543 85.7527 45.6972C85.7527 45.9799 85.6239 46.1212 85.3661 46.1212C85.3531 46.1212 85.1727 46.0955 84.8246 46.0442C84.6055 46.0057 84.4443 46.0184 84.3413 46.0828C84.2382 46.147 84.0705 46.1534 83.8385 46.102C83.5033 46.0249 83.3229 45.9863 83.2972 45.9863C83.4905 45.9863 82.5817 46.0313 80.5708 46.1212C80.1712 46.1212 79.9714 46.0313 79.9714 45.8514C79.9714 45.6716 80.2228 45.3374 80.7255 44.8492C81.0735 44.4637 81.3121 44.2067 81.4409 44.0782C81.6859 43.7697 81.8728 43.4742 82.0016 43.1916C82.0403 43.1016 82.0145 42.9667 81.9243 42.7868C81.8469 42.6068 81.8147 42.4591 81.8276 42.3435C81.8276 42.3307 82.1112 41.7396 82.6784 40.5703C82.7041 40.5703 82.7814 40.4867 82.9104 40.3197C82.9748 40.2168 82.9813 40.127 82.9297 40.0499C82.7492 39.7543 82.4914 39.6708 82.1563 39.7993C82.0275 39.8507 81.6794 40.1076 81.1122 40.5703C80.661 40.93 80.3065 41.1035 80.0487 41.0907C79.8425 41.0521 79.7394 40.9043 79.7394 40.6474C79.7394 40.6474 79.8039 40.2812 79.9327 39.5487C79.9586 39.4845 80.0294 39.3624 80.1455 39.1825C80.2615 38.9897 80.3194 38.8292 80.3194 38.7007C80.3194 38.6107 80.2808 38.4887 80.2034 38.3345C80.139 38.1674 80.0939 38.0454 80.0681 37.9683C80.0939 37.6599 80.0746 37.223 80.01 36.6576C79.9199 36.5805 79.8103 36.4584 79.6814 36.2913C79.6684 36.0729 79.7974 35.9445 80.0681 35.9059C80.3259 35.8801 80.5321 35.9124 80.6868 36.0022C80.9188 36.1821 81.3571 36.4841 82.0016 36.9082C82.3884 37.1266 82.8008 37.2358 83.2391 37.2358C83.4969 37.2358 83.7032 37.1587 83.8579 37.0045C84.0126 36.8503 84.1608 36.2143 84.3026 35.0963C84.3799 34.9293 84.4637 34.6851 84.5539 34.3639C84.6829 34.107 84.8439 33.6829 85.0373 33.0918C84.9342 32.9633 84.9084 32.7642 84.9599 32.4943C84.9986 32.4172 85.1533 32.096 85.424 31.5307C85.6174 31.1708 85.8752 30.6183 86.1974 29.873C86.2747 29.5775 86.3843 29.1728 86.5262 28.6588C86.6808 28.4788 86.8549 28.2155 87.0482 27.8685C87.074 27.6243 87.1319 27.2582 87.2222 26.7699C87.3512 26.59 87.4929 26.3009 87.6476 25.9025C87.6347 25.8768 87.609 25.8576 87.5703 25.8447C87.7894 25.4721 88.0729 24.9067 88.421 24.1485C88.6788 23.2491 89.0526 22.0541 89.5424 20.5635C89.5811 20.2295 89.6907 19.7733 89.8711 19.1951C90.1032 18.6812 90.2773 18.4241 90.3932 18.4241C90.4577 18.4241 90.6446 18.7133 90.9539 19.2914ZM90.6833 29.6803C90.6574 29.6546 90.5995 29.4939 90.5092 29.1984C90.4318 28.98 90.361 28.8708 90.2965 28.8708C90.1418 28.8708 90.013 29.0892 89.9098 29.526C89.8583 29.8474 89.7938 30.1493 89.7165 30.432C89.5489 30.6504 89.3491 31.0167 89.117 31.5307C89.0526 31.7876 88.9688 32.1795 88.8657 32.7063C88.7369 33.0147 88.55 33.4645 88.305 34.0555C88.2792 34.351 88.1697 34.788 87.9763 35.3662C87.8603 35.5075 87.6991 35.7067 87.4929 35.9637C87.1449 36.5547 86.9709 36.876 86.9709 36.9274C86.9709 37.0045 86.9902 37.0751 87.0288 37.1395C87.0804 37.2037 87.2996 37.223 87.6863 37.1972C88.2148 37.1587 88.4984 37.1395 88.537 37.1395C89.3104 37.2037 89.6455 37.2358 89.5424 37.2358C89.7358 37.2358 90.0967 37.3322 90.6252 37.5249C90.7155 37.5892 90.8767 37.5828 91.1086 37.5057C91.3536 37.4285 91.5018 37.4093 91.5534 37.4479C91.6952 37.5378 91.8821 37.5828 92.1141 37.5828C92.3074 37.5828 92.5202 37.5249 92.7522 37.4093C92.9971 37.2937 93.1196 37.1395 93.1196 36.9467C93.1196 36.8825 93.0809 36.7539 93.0035 36.5612C92.9391 36.3557 92.9132 36.1885 92.9262 36.0601C92.9519 35.8032 92.8681 35.3983 92.6749 34.8458C92.649 34.743 92.359 34.062 91.8047 32.8028C91.663 32.52 91.4696 32.096 91.2246 31.5307C91.1859 31.3635 91.1537 31.113 91.128 30.7789C91.115 30.4449 91.0828 30.1943 91.0312 30.0272C90.9539 29.9501 90.838 29.8345 90.6833 29.6803ZM108.936 20.4672C108.936 20.5829 108.801 20.8655 108.53 21.3153C108.272 21.7521 108.104 22.0926 108.027 22.3368C107.898 22.5038 107.75 22.7672 107.582 23.1271C107.402 24.6304 107.312 26.3201 107.312 28.1962C107.312 28.2476 107.357 28.3375 107.447 28.466C107.537 28.5817 107.582 28.6651 107.582 28.7166C107.582 28.8451 107.55 29.0442 107.486 29.3141C107.434 29.5839 107.408 29.7832 107.408 29.9116C107.408 30.1685 107.434 30.5347 107.486 31.0103C107.537 31.5242 107.569 31.8968 107.582 32.1282C107.621 33.1047 107.621 33.9013 107.582 34.5182C107.582 34.5696 107.55 34.6595 107.486 34.788C107.434 34.9037 107.408 34.9871 107.408 35.0385C107.408 35.1285 107.434 35.2699 107.486 35.4626C107.55 35.6553 107.582 35.7967 107.582 35.8866C107.582 35.938 107.55 36.0151 107.486 36.1179C107.434 36.2079 107.408 36.2785 107.408 36.3299C107.421 36.15 107.453 36.5226 107.505 37.4479C107.557 38.3601 107.582 38.8999 107.582 39.0668C107.582 39.1568 107.55 39.2789 107.486 39.433C107.434 39.5745 107.408 39.6772 107.408 39.7414C107.408 39.87 107.434 40.0691 107.486 40.3389C107.55 40.6088 107.582 40.8143 107.582 40.9558C107.582 41.0071 107.544 41.11 107.466 41.2641C107.402 41.4055 107.383 41.5018 107.408 41.5533C107.55 41.9259 107.782 42.1572 108.104 42.2471C108.337 42.3113 108.639 42.3371 109.013 42.3242C109.529 42.3113 109.825 42.3113 109.903 42.3242C110.354 42.3628 111.037 42.427 111.952 42.517C112.494 42.5555 113.029 42.5941 113.557 42.6326C114.163 42.6583 114.666 42.6197 115.065 42.517C115.246 42.4399 115.426 42.2728 115.607 42.0158C115.89 41.656 116.058 41.4504 116.109 41.3991C116.341 41.1549 116.619 40.808 116.941 40.3583C116.954 40.3197 116.979 40.3004 117.018 40.3004C117.121 40.3004 117.211 40.3904 117.289 40.5703C117.366 40.7501 117.405 40.93 117.405 41.11C117.405 41.187 117.392 41.2641 117.366 41.3412C117.173 41.868 117.076 42.4142 117.076 42.9796C117.089 43.5578 117.095 44.136 117.095 44.7142C117.134 45.0612 117.095 45.4595 116.979 45.9092C116.889 46.0249 116.599 46.0249 116.109 45.9092C115.864 45.8193 115.516 45.71 115.065 45.5816C114.988 45.5687 114.872 45.5945 114.717 45.6587C114.563 45.7229 114.447 45.755 114.369 45.755C114.189 45.755 113.963 45.7229 113.692 45.6587C113.344 45.6072 113.112 45.5816 112.996 45.5816C112.249 45.5045 111.682 45.4659 111.295 45.4659C110.857 45.4916 110.141 45.5301 109.149 45.5816C108.233 45.633 107.524 45.6587 107.022 45.6587C106.867 45.6587 106.654 45.6266 106.384 45.5622C106.126 45.498 105.932 45.4659 105.804 45.4659C105.533 45.4659 105.114 45.5174 104.547 45.6201C103.98 45.7229 103.567 45.7743 103.309 45.7743C103.013 45.7743 102.749 45.7358 102.517 45.6587C102.439 45.6458 102.401 45.6008 102.401 45.5237C102.401 45.4338 102.471 45.2796 102.613 45.0612C102.807 44.7528 102.91 44.5793 102.923 44.5408C103.052 44.4122 103.206 44.2195 103.387 43.9625C103.722 43.4871 103.896 43.2301 103.909 43.1916C104.128 42.8832 104.25 42.5941 104.276 42.3242C104.212 41.9645 104.16 41.4247 104.121 40.7051C104.16 40.628 104.218 40.5188 104.295 40.3775C104.386 40.2362 104.424 40.1076 104.411 39.992C104.411 39.9407 104.341 39.9021 104.199 39.8764C104.057 39.8507 103.986 39.8057 103.986 39.7414C103.883 39.2917 103.883 38.8099 103.986 38.2959C104.154 38.0903 104.328 37.7691 104.508 37.3322C104.534 37.1137 104.527 36.8118 104.489 36.4263C104.45 35.9251 104.424 35.636 104.411 35.5589C104.424 35.3276 104.424 34.9808 104.411 34.5182C104.334 34.441 104.237 34.2933 104.121 34.0749C104.121 33.9463 104.154 33.76 104.218 33.5159C104.283 33.2717 104.315 33.0854 104.315 32.957C104.379 32.3401 104.379 31.7747 104.315 31.2608C104.315 31.1322 104.27 30.9203 104.179 30.6247C104.089 30.3163 104.044 30.0787 104.044 29.9116C104.07 29.8217 104.134 29.7124 104.237 29.5839C104.353 29.4554 104.411 29.3591 104.411 29.2949C104.411 29.2305 104.353 29.1857 104.237 29.1599C104.134 29.1213 104.07 29.0828 104.044 29.0442C103.98 28.7487 103.96 28.2925 103.986 27.6758C104.025 27.4316 104.07 27.0526 104.121 26.5385C104.186 26.0117 104.25 25.2151 104.315 24.1485C104.341 24.1229 104.373 24.0266 104.411 23.8595C104.45 23.7182 104.45 23.6089 104.411 23.5318C104.166 23.1592 103.825 22.5682 103.387 21.7585C103 21.0775 102.807 20.6021 102.807 20.3322C102.807 20.1138 102.916 20.0046 103.135 20.0046C103.303 20.0046 103.522 20.0688 103.793 20.1974C103.947 20.2745 104.154 20.2937 104.411 20.2551C104.721 20.2038 104.921 20.1845 105.011 20.1974C105.062 20.1974 105.133 20.2295 105.224 20.2937C105.314 20.358 105.391 20.3901 105.456 20.3901C105.649 20.3001 105.958 20.2103 106.384 20.1203C106.551 20.1203 106.796 20.101 107.118 20.0625C107.453 20.011 107.724 19.9854 107.931 19.9854C108.601 19.9854 108.936 20.1459 108.936 20.4672ZM125.332 20.4672C125.332 20.5829 125.197 20.8655 124.926 21.3153C124.668 21.7521 124.501 22.0926 124.424 22.3368C124.295 22.5038 124.146 22.7672 123.979 23.1271C123.798 24.6304 123.708 26.3201 123.708 28.1962C123.708 28.2476 123.753 28.3375 123.843 28.466C123.934 28.5817 123.979 28.6651 123.979 28.7166C123.979 28.8451 123.947 29.0442 123.882 29.3141C123.831 29.5839 123.805 29.7832 123.805 29.9116C123.805 30.1685 123.831 30.5347 123.882 31.0103C123.934 31.5242 123.966 31.8968 123.979 32.1282C124.018 33.1047 124.018 33.9013 123.979 34.5182C123.979 34.5696 123.947 34.6595 123.882 34.788C123.831 34.9037 123.805 34.9871 123.805 35.0385C123.805 35.1285 123.831 35.2699 123.882 35.4626C123.947 35.6553 123.979 35.7967 123.979 35.8866C123.979 35.938 123.947 36.0151 123.882 36.1179C123.831 36.2079 123.805 36.2785 123.805 36.3299C123.818 36.15 123.85 36.5226 123.902 37.4479C123.953 38.3601 123.979 38.8999 123.979 39.0668C123.979 39.1568 123.947 39.2789 123.882 39.433C123.831 39.5745 123.805 39.6772 123.805 39.7414C123.805 39.87 123.831 40.0691 123.882 40.3389C123.947 40.6088 123.979 40.8143 123.979 40.9558C123.979 41.0071 123.94 41.11 123.863 41.2641C123.798 41.4055 123.779 41.5018 123.805 41.5533C123.947 41.9259 124.179 42.1572 124.501 42.2471C124.733 42.3113 125.036 42.3371 125.41 42.3242C125.925 42.3113 126.222 42.3113 126.299 42.3242C126.75 42.3628 127.434 42.427 128.349 42.517C128.89 42.5555 129.425 42.5941 129.953 42.6326C130.559 42.6583 131.062 42.6197 131.462 42.517C131.642 42.4399 131.823 42.2728 132.003 42.0158C132.287 41.656 132.455 41.4504 132.506 41.3991C132.738 41.1549 133.014 40.808 133.338 40.3583C133.35 40.3197 133.376 40.3004 133.414 40.3004C133.517 40.3004 133.608 40.3904 133.685 40.5703C133.763 40.7501 133.801 40.93 133.801 41.11C133.801 41.187 133.788 41.2641 133.763 41.3412C133.569 41.868 133.472 42.4142 133.472 42.9796C133.486 43.5578 133.492 44.136 133.492 44.7142C133.53 45.0612 133.492 45.4595 133.376 45.9092C133.286 46.0249 132.996 46.0249 132.506 45.9092C132.261 45.8193 131.913 45.71 131.462 45.5816C131.384 45.5687 131.268 45.5945 131.114 45.6587C130.959 45.7229 130.843 45.755 130.766 45.755C130.585 45.755 130.36 45.7229 130.089 45.6587C129.741 45.6072 129.509 45.5816 129.393 45.5816C128.645 45.5045 128.078 45.4659 127.691 45.4659C127.253 45.4916 126.538 45.5301 125.545 45.5816C124.63 45.633 123.921 45.6587 123.418 45.6587C123.263 45.6587 123.051 45.6266 122.78 45.5622C122.522 45.498 122.329 45.4659 122.2 45.4659C121.929 45.4659 121.51 45.5174 120.943 45.6201C120.376 45.7229 119.964 45.7743 119.706 45.7743C119.409 45.7743 119.145 45.7358 118.913 45.6587C118.836 45.6458 118.797 45.6008 118.797 45.5237C118.797 45.4338 118.868 45.2796 119.01 45.0612C119.203 44.7528 119.306 44.5793 119.319 44.5408C119.448 44.4122 119.603 44.2195 119.783 43.9625C120.118 43.4871 120.292 43.2301 120.305 43.1916C120.524 42.8832 120.647 42.5941 120.673 42.3242C120.608 41.9645 120.557 41.4247 120.518 40.7051C120.557 40.628 120.615 40.5188 120.692 40.3775C120.782 40.2362 120.821 40.1076 120.808 39.992C120.808 39.9407 120.737 39.9021 120.595 39.8764C120.453 39.8507 120.383 39.8057 120.383 39.7414C120.279 39.2917 120.279 38.8099 120.383 38.2959C120.55 38.0903 120.724 37.7691 120.905 37.3322C120.93 37.1137 120.924 36.8118 120.885 36.4263C120.847 35.9251 120.821 35.636 120.808 35.5589C120.821 35.3276 120.821 34.9808 120.808 34.5182C120.73 34.441 120.634 34.2933 120.518 34.0749C120.518 33.9463 120.55 33.76 120.615 33.5159C120.679 33.2717 120.711 33.0854 120.711 32.957C120.776 32.3401 120.776 31.7747 120.711 31.2608C120.711 31.1322 120.666 30.9203 120.576 30.6247C120.486 30.3163 120.44 30.0787 120.44 29.9116C120.466 29.8217 120.531 29.7124 120.634 29.5839C120.75 29.4554 120.808 29.3591 120.808 29.2949C120.808 29.2305 120.75 29.1857 120.634 29.1599C120.531 29.1213 120.466 29.0828 120.44 29.0442C120.376 28.7487 120.357 28.2925 120.383 27.6758C120.421 27.4316 120.466 27.0526 120.518 26.5385C120.582 26.0117 120.647 25.2151 120.711 24.1485C120.737 24.1229 120.769 24.0266 120.808 23.8595C120.847 23.7182 120.847 23.6089 120.808 23.5318C120.563 23.1592 120.221 22.5682 119.783 21.7585C119.396 21.0775 119.203 20.6021 119.203 20.3322C119.203 20.1138 119.313 20.0046 119.532 20.0046C119.699 20.0046 119.918 20.0688 120.189 20.1974C120.344 20.2745 120.55 20.2937 120.808 20.2551C121.117 20.2038 121.317 20.1845 121.407 20.1974C121.459 20.1974 121.53 20.2295 121.62 20.2937C121.71 20.358 121.788 20.3901 121.852 20.3901C122.045 20.3001 122.355 20.2103 122.78 20.1203C122.948 20.1203 123.193 20.101 123.515 20.0625C123.85 20.011 124.121 19.9854 124.327 19.9854C124.997 19.9854 125.332 20.1459 125.332 20.4672ZM146.486 19.2914C146.679 19.6641 146.775 20.0367 146.775 20.4093C146.775 20.5635 146.795 20.6921 146.833 20.7949C146.988 21.0389 147.182 21.418 147.414 21.9321C147.568 22.2147 147.645 22.5682 147.645 22.9921C147.645 23.4418 147.671 23.7695 147.723 23.9751C147.917 24.3092 148.187 24.8489 148.535 25.5942C148.651 26.121 148.825 26.9176 149.057 27.9842C149.185 28.2283 149.353 28.6203 149.56 29.1599C149.65 29.5583 149.824 30.13 150.082 30.8753C150.262 31.0809 150.488 31.4021 150.759 31.8391C150.835 32.263 150.984 32.867 151.203 33.6508C151.371 33.8435 151.564 34.1584 151.783 34.5953C151.783 35.0064 151.848 35.6296 151.977 36.4649C152.196 37.1972 152.415 37.5634 152.634 37.5634C152.84 37.5634 153.368 37.5057 154.22 37.39C154.606 37.3385 154.942 37.0559 155.225 36.542C155.418 36.1821 155.624 36.0022 155.843 36.0022C155.999 36.0022 156.075 36.1308 156.075 36.3878C156.011 36.9659 156.031 37.7049 156.134 38.6043C156.25 38.887 156.301 39.1504 156.288 39.3945C156.25 39.6258 156.205 39.8635 156.153 40.1076C156.153 40.2362 156.185 40.4096 156.25 40.628C156.328 40.8466 156.366 40.9943 156.366 41.0714C156.366 41.1613 156.321 41.2128 156.23 41.2255C156.05 41.2641 155.831 41.1742 155.573 40.9558C155.264 40.6217 155.064 40.4354 154.973 40.3968C154.794 40.2939 154.593 40.1783 154.374 40.0499C154.168 39.9213 153.994 39.8571 153.853 39.8571C153.569 39.8571 153.426 40.0563 153.426 40.4546C153.426 40.6217 153.549 41.0264 153.795 41.6689C153.898 41.8359 154.039 42.1058 154.22 42.4784C154.155 42.5941 154.097 42.7675 154.045 42.9988C154.148 43.1145 154.329 43.3714 154.587 43.7697C154.857 44.1553 155.289 44.7784 155.883 45.6393C155.986 45.6908 156.102 45.7422 156.23 45.7935C156.437 45.8835 156.54 45.9671 156.54 46.0442C156.54 46.0828 156.514 46.1084 156.462 46.1212C155.728 46.2883 154.857 46.3654 153.853 46.3525C153.685 46.3525 153.426 46.3139 153.079 46.2368C152.744 46.1597 152.492 46.1212 152.324 46.1212C152.131 46.1212 151.964 46.1534 151.823 46.2176C151.693 46.2818 151.481 46.3268 151.184 46.3525C150.875 46.3654 150.674 46.3525 150.584 46.3139C150.507 46.2754 150.468 46.2433 150.468 46.2176C150.468 46.192 150.533 46.1149 150.662 45.9863C150.79 45.8579 150.855 45.7485 150.855 45.6587C150.855 45.5687 150.913 45.4595 151.029 45.331C151.145 45.2025 151.203 45.0933 151.203 45.0033C151.203 44.9262 151.145 44.8363 151.029 44.7335C150.913 44.6179 150.855 44.5343 150.855 44.4829C150.907 44.3159 150.971 44.0589 151.049 43.712C150.958 43.0951 150.79 42.4399 150.546 41.746C150.327 41.1678 150.191 40.8016 150.14 40.6474C149.959 40.2362 149.791 39.9728 149.637 39.8571C149.572 39.8057 149.476 39.78 149.348 39.78C149.218 39.78 149.044 39.8121 148.825 39.8764C148.528 39.9792 148.335 40.0305 148.245 40.0305C147.871 40.0563 147.336 39.9984 146.64 39.8571C146.446 39.8185 146.079 39.8314 145.538 39.8957C145.009 39.9599 144.745 39.992 144.745 39.992C144.745 39.9792 144.765 39.9728 144.803 39.9728C144.403 39.8957 143.991 39.9278 143.566 40.0691C143.347 40.172 142.992 40.2233 142.502 40.2233C142.013 40.2233 141.704 40.2812 141.574 40.3968C141.458 40.4996 141.4 40.7374 141.4 41.11C141.413 41.5854 141.407 41.8553 141.38 41.9195C141.161 42.3949 140.91 43.1145 140.627 44.0782C140.613 44.2453 140.716 44.515 140.935 44.8876C141.168 45.2732 141.284 45.543 141.284 45.6972C141.284 45.9799 141.155 46.1212 140.897 46.1212C140.884 46.1212 140.704 46.0955 140.356 46.0442C140.137 46.0057 139.976 46.0184 139.873 46.0828C139.77 46.147 139.602 46.1534 139.37 46.102C139.035 46.0249 138.854 45.9863 138.829 45.9863C139.022 45.9863 138.113 46.0313 136.102 46.1212C135.703 46.1212 135.503 46.0313 135.503 45.8514C135.503 45.6716 135.755 45.3374 136.258 44.8492C136.605 44.4637 136.844 44.2067 136.973 44.0782C137.217 43.7697 137.405 43.4742 137.533 43.1916C137.572 43.1016 137.546 42.9667 137.456 42.7868C137.378 42.6068 137.346 42.4591 137.358 42.3435C137.358 42.3307 137.642 41.7396 138.21 40.5703C138.236 40.5703 138.313 40.4867 138.442 40.3197C138.507 40.2168 138.513 40.127 138.461 40.0499C138.281 39.7543 138.022 39.6708 137.688 39.7993C137.559 39.8507 137.211 40.1076 136.644 40.5703C136.193 40.93 135.838 41.1035 135.58 41.0907C135.374 41.0521 135.27 40.9043 135.27 40.6474C135.27 40.6474 135.335 40.2812 135.464 39.5487C135.489 39.4845 135.561 39.3624 135.677 39.1825C135.793 38.9897 135.851 38.8292 135.851 38.7007C135.851 38.6107 135.813 38.4887 135.735 38.3345C135.67 38.1674 135.625 38.0454 135.599 37.9683C135.625 37.6599 135.605 37.223 135.542 36.6576C135.451 36.5805 135.341 36.4584 135.213 36.2913C135.2 36.0729 135.328 35.9445 135.599 35.9059C135.858 35.8801 136.063 35.9124 136.218 36.0022C136.45 36.1821 136.888 36.4841 137.533 36.9082C137.919 37.1266 138.332 37.2358 138.771 37.2358C139.028 37.2358 139.234 37.1587 139.39 37.0045C139.544 36.8503 139.692 36.2143 139.835 35.0963C139.911 34.9293 139.996 34.6851 140.085 34.3639C140.215 34.107 140.376 33.6829 140.569 33.0918C140.466 32.9633 140.439 32.7642 140.492 32.4943C140.53 32.4172 140.685 32.096 140.955 31.5307C141.149 31.1708 141.407 30.6183 141.729 29.873C141.807 29.5775 141.916 29.1728 142.057 28.6588C142.212 28.4788 142.386 28.2155 142.58 27.8685C142.605 27.6243 142.663 27.2582 142.753 26.7699C142.882 26.59 143.024 26.3009 143.179 25.9025C143.166 25.8768 143.14 25.8576 143.102 25.8447C143.321 25.4721 143.604 24.9067 143.953 24.1485C144.21 23.2491 144.584 22.0541 145.074 20.5635C145.113 20.2295 145.223 19.7733 145.402 19.1951C145.635 18.6812 145.809 18.4241 145.925 18.4241C145.99 18.4241 146.176 18.7133 146.486 19.2914ZM146.214 29.6803C146.189 29.6546 146.131 29.4939 146.041 29.1984C145.963 28.98 145.892 28.8708 145.829 28.8708C145.673 28.8708 145.545 29.0892 145.442 29.526C145.389 29.8474 145.326 30.1493 145.248 30.432C145.08 30.6504 144.881 31.0167 144.649 31.5307C144.584 31.7876 144.501 32.1795 144.398 32.7063C144.268 33.0147 144.081 33.4645 143.837 34.0555C143.81 34.351 143.701 34.788 143.508 35.3662C143.392 35.5075 143.231 35.7067 143.024 35.9637C142.677 36.5547 142.502 36.876 142.502 36.9274C142.502 37.0045 142.522 37.0751 142.56 37.1395C142.612 37.2037 142.831 37.223 143.218 37.1972C143.746 37.1587 144.029 37.1395 144.069 37.1395C144.841 37.2037 145.177 37.2358 145.074 37.2358C145.268 37.2358 145.628 37.3322 146.157 37.5249C146.247 37.5892 146.408 37.5828 146.64 37.5057C146.885 37.4285 147.034 37.4093 147.085 37.4479C147.226 37.5378 147.414 37.5828 147.645 37.5828C147.839 37.5828 148.051 37.5249 148.284 37.4093C148.528 37.2937 148.651 37.1395 148.651 36.9467C148.651 36.8825 148.612 36.7539 148.535 36.5612C148.47 36.3557 148.445 36.1885 148.458 36.0601C148.483 35.8032 148.4 35.3983 148.206 34.8458C148.181 34.743 147.89 34.062 147.336 32.8028C147.195 32.52 147.001 32.096 146.757 31.5307C146.717 31.3635 146.685 31.113 146.659 30.7789C146.647 30.4449 146.614 30.1943 146.562 30.0272C146.486 29.9501 146.37 29.8345 146.214 29.6803Z" fill="#E96405"/>
</svg>
